<?xml version="1.0" encoding="UTF-8" standalone="no"?>
<svg xmlns:dc="http://purl.org/dc/elements/1.1/" xmlns:cc="http://creativecommons.org/ns#" xmlns:rdf="http://www.w3.org/1999/02/22-rdf-syntax-ns#" xmlns:svg="http://www.w3.org/2000/svg" xmlns="http://www.w3.org/2000/svg" version="1.1" id="svg2" xml:space="preserve" width="1270.2711" height="410.64194" viewBox="0 0 1270.2711 410.64192">
  <metadata id="metadata8"></metadata>
  <defs id="defs6">
    <clipPath id="clipPath18">
      <path d="M 0,800 H 800 V 0 H 0 Z" id="path16"></path>
    </clipPath>
  </defs>
  <g transform="matrix(1.3333333,0,0,-1.3333333,-66.920524,564.02992)" id="g20"></g>
  <g transform="matrix(1.3333333,0,0,-1.3333333,6.9245359,610.64179)" id="g24"></g>
  <g transform="matrix(1.3333333,0,0,-1.3333333,117.17254,610.64179)" id="g28"></g>
  <g transform="matrix(1.3333333,0,0,-1.3333333,237.54694,610.64179)" id="g32"></g>
  <g transform="matrix(1.3333333,0,0,-1.3333333,342.6016,572.45952)" id="g36"></g>
  <g transform="translate(-299.55465,-222.00012)" id="g982">
    <g id="g42" transform="matrix(1.3333333,0,0,-1.3333333,1465.2244,448.55855)">
      <g id="g924">
        <path transform="translate(-424.7832,6.3222003)" id="path22" style="fill:#433699;fill-opacity:1;fill-rule:nonzero;stroke:none" d="m 0,0 v 10.457 l 37.753,0.06 v -33.074 c -5.796,-4.62 -11.773,-8.095 -17.934,-10.426 -6.16,-2.33 -12.483,-3.495 -18.968,-3.495 -8.754,0 -16.709,1.873 -23.862,5.624 -7.155,3.748 -12.555,9.17 -16.203,16.263 -3.647,7.093 -5.471,15.016 -5.471,23.77 0,8.674 1.813,16.769 5.44,24.289 3.628,7.517 8.847,13.102 15.656,16.75 6.809,3.648 14.652,5.471 23.528,5.471 6.445,0 12.271,-1.045 17.478,-3.131 5.21,-2.088 9.293,-4.996 12.251,-8.725 2.959,-3.729 5.207,-8.593 6.75,-14.591 L 25.777,26.323 c -1.337,4.54 -2.999,8.107 -4.985,10.7 -1.986,2.595 -4.823,4.672 -8.511,6.232 C 8.592,44.816 4.499,45.598 0,45.598 c -5.391,0 -10.052,-0.822 -13.983,-2.465 -3.932,-1.64 -7.104,-3.799 -9.514,-6.474 -2.413,-2.675 -4.287,-5.612 -5.625,-8.814 -2.269,-5.512 -3.404,-11.491 -3.404,-17.937 0,-7.943 1.369,-14.591 4.103,-19.94 2.737,-5.351 6.719,-9.322 11.947,-11.916 5.228,-2.595 10.781,-3.892 16.658,-3.892 5.107,0 10.091,0.984 14.955,2.948 4.863,1.967 8.552,4.064 11.068,6.293 V 0 Z"></path>
        <path transform="translate(-369.3994,-28.636703)" id="path26" style="fill:#433699;fill-opacity:1;fill-rule:nonzero;stroke:none" d="M 0,0 V 89.127 H 64.444 V 78.611 H 11.795 V 51.313 H 61.102 V 40.855 H 11.795 V 10.52 H 66.511 V 0 Z"></path>
        <path transform="translate(-286.7134,-28.636703)" id="path30" style="fill:#433699;fill-opacity:1;fill-rule:nonzero;stroke:none" d="M 0,0 V 89.127 H 12.1 L 58.91,19.152 V 89.127 H 70.221 V 0 h -12.1 L 11.308,70.037 V 0 Z"></path>
        <path transform="translate(-196.4326,-28.636703)" id="path34" style="fill:#433699;fill-opacity:1;fill-rule:nonzero;stroke:none" d="M 0,0 V 89.127 H 64.443 V 78.611 H 11.793 V 51.313 H 61.101 V 40.855 H 11.793 V 10.52 H 66.51 V 0 Z"></path>
        <path transform="translate(-117.6416)" id="path38" style="fill:#433699;fill-opacity:1;fill-rule:nonzero;stroke:none" d="m 0,0 11.127,0.973 c 0.524,-4.459 1.751,-8.118 3.678,-10.976 1.924,-2.856 4.912,-5.167 8.967,-6.932 4.051,-1.761 8.612,-2.642 13.678,-2.642 4.499,0 8.471,0.668 11.916,2.005 3.446,1.338 6.01,3.173 7.691,5.502 1.683,2.332 2.523,4.874 2.523,7.631 0,2.795 -0.81,5.239 -2.432,7.325 -1.621,2.089 -4.296,3.842 -8.025,5.26 -2.392,0.932 -7.682,2.381 -15.866,4.345 -8.191,1.967 -13.924,3.821 -17.207,5.564 -4.256,2.229 -7.428,4.996 -9.514,8.298 -2.089,3.304 -3.132,7.003 -3.132,11.097 0,4.499 1.276,8.703 3.832,12.613 2.551,3.913 6.28,6.882 11.187,8.909 4.901,2.027 10.353,3.04 16.352,3.04 6.607,0 12.432,-1.065 17.48,-3.194 5.045,-2.127 8.925,-5.258 11.643,-9.392 2.713,-4.134 4.172,-8.815 4.377,-14.043 l -11.31,-0.851 c -0.606,5.634 -2.664,9.89 -6.169,12.767 -3.508,2.878 -8.685,4.315 -15.534,4.315 -7.134,0 -12.332,-1.307 -15.594,-3.921 -3.264,-2.615 -4.894,-5.765 -4.894,-9.454 0,-3.202 1.155,-5.837 3.464,-7.903 2.271,-2.067 8.199,-4.186 17.783,-6.353 9.586,-2.17 16.161,-4.064 19.728,-5.685 5.188,-2.392 9.02,-5.42 11.491,-9.09 2.473,-3.666 3.71,-7.893 3.71,-12.675 0,-4.742 -1.359,-9.212 -4.074,-13.405 -2.716,-4.196 -6.617,-7.458 -11.703,-9.789 -5.088,-2.329 -10.814,-3.494 -17.177,-3.494 -8.065,0 -14.823,1.176 -20.273,3.526 -5.453,2.351 -9.728,5.885 -12.829,10.608 C 1.794,-11.301 0.162,-5.958 0,0"></path>
        <path transform="translate(-599.2588,-204.1553)" id="path40" style="fill:#433699;fill-opacity:1;fill-rule:nonzero;stroke:none" d="m 570.685,264.646 h 11.792 v -89.127 h -11.792 z"></path>
        <path id="path44" style="fill:#433699;fill-opacity:1;fill-rule:nonzero;stroke:none" d="m 0,0 11.127,0.973 c 0.524,-4.459 1.751,-8.118 3.678,-10.976 1.924,-2.856 4.912,-5.167 8.968,-6.932 4.05,-1.761 8.612,-2.642 13.678,-2.642 4.499,0 8.471,0.668 11.916,2.005 3.446,1.338 6.009,3.173 7.69,5.502 1.683,2.332 2.524,4.874 2.524,7.631 0,2.795 -0.81,5.239 -2.433,7.325 -1.621,2.089 -4.295,3.842 -8.024,5.26 -2.392,0.932 -7.683,2.381 -15.867,4.345 -8.19,1.967 -13.923,3.821 -17.206,5.564 -4.256,2.229 -7.428,4.996 -9.515,8.298 -2.088,3.304 -3.131,7.003 -3.131,11.097 0,4.499 1.276,8.703 3.831,12.613 2.551,3.913 6.28,6.882 11.187,8.909 4.901,2.027 10.354,3.04 16.352,3.04 6.607,0 12.433,-1.065 17.481,-3.194 5.044,-2.127 8.925,-5.258 11.642,-9.392 2.713,-4.134 4.172,-8.815 4.378,-14.043 L 56.965,34.532 c -0.606,5.634 -2.664,9.89 -6.169,12.767 -3.507,2.878 -8.684,4.315 -15.534,4.315 -7.133,0 -12.332,-1.307 -15.593,-3.921 -3.265,-2.615 -4.894,-5.765 -4.894,-9.454 0,-3.202 1.154,-5.837 3.464,-7.903 2.27,-2.067 8.198,-4.186 17.782,-6.353 9.587,-2.17 16.162,-4.064 19.728,-5.685 5.189,-2.392 9.02,-5.42 11.492,-9.09 2.473,-3.666 3.71,-7.893 3.71,-12.675 0,-4.742 -1.359,-9.212 -4.075,-13.405 -2.715,-4.196 -6.617,-7.458 -11.702,-9.789 -5.088,-2.329 -10.814,-3.494 -17.177,-3.494 -8.066,0 -14.824,1.176 -20.274,3.526 -5.452,2.351 -9.727,5.885 -12.829,10.608 C 1.795,-11.301 0.162,-5.958 0,0"></path>
      </g>
    </g>
    <g id="g960">
      <g transform="matrix(1.3333333,0,0,-1.3333333,708.95305,373.84712)" id="g46">
        <path id="path48" style="fill:#616264;fill-opacity:1;fill-rule:nonzero;stroke:none" d="m 0,0 c 1.146,4.601 1.727,9.312 1.727,14.064 0,29.035 -21.019,52.655 -46.853,52.655 -0.8,0 -1.579,-0.09 -2.369,-0.135 -8.749,16.397 -24.372,26.429 -41.572,26.429 -0.85,0 -1.689,-0.051 -2.528,-0.099 V 79.736 c 0.425,0.034 0.839,0.106 1.269,0.122 12.027,0.451 23.147,-5.577 30.293,-15.919 -16.795,-6.358 -29.341,-23.12 -31.562,-43.441 v -8.457 c 0.759,-2.404 2.586,-4.28 4.92,-4.515 3.469,-0.348 6.38,2.713 6.38,6.538 0,21.737 15.694,39.431 35.017,39.523 18.225,0.088 33.855,-16.185 35.222,-36.609 0.39,-5.812 -0.387,-11.605 -2.294,-17.139 l -0.534,-1.554 c -0.685,-1.991 -0.036,-4.249 1.557,-5.413 l 1.241,-0.907 c 6.19,-4.523 11.069,-10.678 14.315,-17.778 H 16.99 C 13.576,-15.732 7.762,-6.784 0,0"></path>
      </g>
      <g transform="matrix(1.3333333,0,0,-1.3333333,421.03972,285.06845)" id="g50">
        <path id="path52" style="fill:#616264;fill-opacity:1;fill-rule:nonzero;stroke:none" d="m 0,0 c -0.79,0.045 -1.569,0.135 -2.369,0.135 -25.835,0 -46.853,-23.62 -46.853,-52.655 0,-4.752 0.58,-9.463 1.727,-14.064 -7.761,-6.784 -13.577,-15.732 -16.99,-25.813 h 12.76 c 3.246,7.1 8.125,13.255 14.315,17.778 l 1.246,0.91 c 1.59,1.162 2.239,3.417 1.555,5.405 l -0.537,1.559 c -2.562,7.439 -3.084,15.346 -1.476,23.138 3.327,16.12 15.554,28.497 30.186,30.353 21.132,2.679 39.115,-15.841 39.235,-39.031 0.017,-3.353 2.202,-6.383 5.167,-6.757 2.805,-0.354 5.24,1.539 6.134,4.27 v 8.666 C 41.885,-25.775 29.338,-9.005 12.539,-2.645 19.683,7.697 30.804,13.725 42.831,13.274 43.26,13.258 43.675,13.186 44.1,13.152 V 26.33 c -0.839,0.048 -1.678,0.099 -2.528,0.099 C 24.372,26.429 8.749,16.397 0,0"></path>
      </g>
      <g transform="matrix(1.3333333,0,0,-1.3333333,626.57425,374.09965)" id="g54">
        <path id="path56" style="fill:#616264;fill-opacity:1;fill-rule:nonzero;stroke:none" d="m 0,0 c -2.795,1.811 -6.368,0.731 -7.978,-2.411 -2.693,-5.255 -4.116,-11.254 -4.116,-17.344 0,-2.003 0.169,-3.959 0.462,-5.869 H 0.329 c -0.47,1.87 -0.738,3.832 -0.738,5.869 0,3.795 0.884,7.526 2.556,10.789 C 3.758,-5.824 2.799,-1.808 0,0"></path>
      </g>
      <g transform="matrix(1.3333333,0,0,-1.3333333,440.09119,374.09965)" id="g58">
        <path id="path60" style="fill:#616264;fill-opacity:1;fill-rule:nonzero;stroke:none" d="m 0,0 c -2.799,-1.808 -3.757,-5.824 -2.147,-8.966 1.672,-3.263 2.557,-6.994 2.557,-10.789 0,-2.037 -0.269,-3.999 -0.738,-5.869 h 11.96 c 0.293,1.91 0.462,3.866 0.462,5.869 0,6.09 -1.423,12.089 -4.115,17.344 C 6.369,0.731 2.796,1.811 0,0"></path>
      </g>
      <g transform="matrix(1.3333333,0,0,-1.3333333,738.66531,560.25271)" id="g62">
        <path id="path64" style="fill:#423598;fill-opacity:1;fill-rule:nonzero;stroke:none" d="m 0,0 c 0,-6.784 -4.342,-12.729 -10.806,-14.791 l -52.807,-16.856 c -2.719,-0.869 -5.556,-1.31 -8.41,-1.31 h -30.887 c -7.005,0 -13.722,2.782 -18.675,7.735 l -3.089,3.088 c -7.537,7.538 -17.573,12.359 -28.228,12.64 -11.157,0.296 -21.695,-3.912 -29.558,-11.775 l -3.951,-3.953 c -4.949,-4.953 -11.665,-7.735 -18.667,-7.735 h -30.899 c -2.855,0 -5.691,0.441 -8.411,1.31 l -52.803,16.856 c -6.465,2.062 -10.807,8.006 -10.807,14.791 v 69.514 c 0,11.492 9.316,20.807 20.807,20.807 h 105.484 55.339 105.562 C -9.315,90.321 0,81.006 0,69.516 Z m -167.872,218.521 c 0,7.627 6.206,13.834 13.834,13.834 7.629,0 13.835,-6.207 13.835,-13.834 V 104.156 h -27.669 z M -20.808,104.156 h -105.56 v 113.388 c 0,14.723 -11.086,27.599 -25.776,28.582 -16.11,1.078 -29.563,-11.722 -29.563,-27.605 V 104.156 h -105.485 c -19.132,0 -34.641,-15.509 -34.641,-34.64 V 0 c 0,-12.776 8.263,-24.087 20.434,-27.972 l 55.676,-17.771 c 2.177,-0.695 4.448,-1.049 6.733,-1.049 h 33.901 c 10.68,0 20.922,4.244 28.47,11.799 l 3.274,3.275 c 4.735,4.739 10.948,7.932 17.633,8.351 7.689,0.481 14.999,-2.293 20.389,-7.683 l 3.955,-3.954 c 7.547,-7.548 17.784,-11.788 28.458,-11.788 h 33.902 c 2.285,0 4.556,0.354 6.733,1.049 l 55.676,17.772 C 5.572,-24.086 13.835,-12.776 13.835,0 v 69.514 c 0,19.132 -15.51,34.642 -34.643,34.642"></path>
      </g>
    </g>
  </g>
</svg>
